# xmcd
#
# Track frame offsets: 
#        150
#        11782
#        21699
#        32453
#        44033
#        57203
#        68761
#        79701
#        90348
#        101427
#        114265
#        125260
#
# Disc length: 1810 seconds
#
# Revision: 0
# Processed by: cddbd v1.4PL0 Copyright (c) Steve Scherf et al.
# Submitted via: ExactAudioCopy v0.95a3
#
DISCID=9207100c
DTITLE=Patsy Cline - Stop, Look And Listen
DYEAR=2000
DGENRE=Country
TTITLE0=Walking after Midnight
TTITLE1=I'm Blue Again
TTITLE2=Honky Tonk Merry Go Round
TTITLE3=The Heart You Break May Be Your Own
TTITLE4=Life's Railway To Heaven
TTITLE5=Crazy Dreams
TTITLE6=I Cried All The Way To The Alter
TTITLE7=Lovesick Blues
TTITLE8=There He Goes
TTITLE9=Yes, I Understand
TTITLE10=I Don't Wanna
TTITLE11=Stop, Look And Listen
EXTD=
EXTT0=
EXTT1=
EXTT2=
EXTT3=
EXTT4=
EXTT5=
EXTT6=
EXTT7=
EXTT8=
EXTT9=
EXTT10=
EXTT11=
PLAYORDER=
